HIERARCHY
ROOT Hips
{
	OFFSET 0.00000 0.00000 0.00000
	CHANNELS 6 Xposition Yposition Zposition Zrotation Yrotation Xrotation 
	JOINT LHipJoint
	{
		OFFSET 0 0 0
		CHANNELS 3 Zrotation Yrotation Xrotation
		JOINT LeftUpLeg
		{
			OFFSET 1.75344 -1.53157 0.77399
			CHANNELS 3 Zrotation Yrotation Xrotation
			JOINT LeftLeg
			{
				OFFSET 2.25415 -6.19323 0.00000
				CHANNELS 3 Zrotation Yrotation Xrotation
				JOINT LeftFoot
				{
					OFFSET 2.30342 -6.32861 0.00000
					CHANNELS 3 Zrotation Yrotation Xrotation
					JOINT LeftToeBase
					{
						OFFSET 0.10958 -0.30108 1.49206
						CHANNELS 3 Zrotation Yrotation Xrotation
						End Site
						{
							OFFSET 0.00000 -0.00000 0.77783
						}
					}
				}
			}
		}
	}
	JOINT RHipJoint
	{
		OFFSET 0 0 0
		CHANNELS 3 Zrotation Yrotation Xrotation
		JOINT RightUpLeg
		{
			OFFSET -1.81912 -1.53156 0.77399
			CHANNELS 3 Zrotation Yrotation Xrotation
			JOINT RightLeg
			{
				OFFSET -2.22882 -6.12365 0.00000
				CHANNELS 3 Zrotation Yrotation Xrotation
				JOINT RightFoot
				{
					OFFSET -2.21943 -6.09785 0.00000
					CHANNELS 3 Zrotation Yrotation Xrotation
					JOINT RightToeBase
					{
						OFFSET -0.18931 -0.52012 1.59379
						CHANNELS 3 Zrotation Yrotation Xrotation
						End Site
						{
							OFFSET -0.00000 -0.00000 0.84686
						}
					}
				}
			}
		}
	}
	JOINT LowerBack
	{
		OFFSET 0 0 0
		CHANNELS 3 Zrotation Yrotation Xrotation
		JOINT Spine
		{
			OFFSET -0.00200 1.66634 -0.14248
			CHANNELS 3 Zrotation Yrotation Xrotation
			JOINT Spine1
			{
				OFFSET -0.00875 1.64542 0.09514
				CHANNELS 3 Zrotation Yrotation Xrotation
				JOINT Neck
				{
					OFFSET 0 0 0
					CHANNELS 3 Zrotation Yrotation Xrotation
					JOINT Neck1
					{
						OFFSET 0.02257 1.59605 0.00839
						CHANNELS 3 Zrotation Yrotation Xrotation
						JOINT Head
						{
							OFFSET -0.10214 1.57530 -0.23335
							CHANNELS 3 Zrotation Yrotation Xrotation
							End Site
							{
								OFFSET -0.03588 1.60717 -0.08062
							}
						}
					}
				}
				JOINT LeftShoulder
				{
					OFFSET 0 0 0
					CHANNELS 3 Zrotation Yrotation Xrotation
					JOINT LeftArm
					{
						OFFSET 2.54983 1.10186 0.40078
						CHANNELS 3 Zrotation Yrotation Xrotation
						JOINT LeftForeArm
						{
							OFFSET 4.28840 -0.00000 0.00000
							CHANNELS 3 Zrotation Yrotation Xrotation
							JOINT LeftHand
							{
								OFFSET 3.06552 -0.00000 -0.00000
								CHANNELS 3 Zrotation Yrotation Xrotation
								JOINT LeftFingerBase
								{
									OFFSET 0 0 0
									CHANNELS 3 Zrotation Yrotation Xrotation
									JOINT LeftHandIndex1
									{
										OFFSET 0.75304 -0.00000 0.00000
										CHANNELS 3 Zrotation Yrotation Xrotation
										End Site
										{
											OFFSET 0.60712 -0.00000 0.00000
										}
									}
								}
								JOINT LThumb
								{
									OFFSET 0 0 0
									CHANNELS 3 Zrotation Yrotation Xrotation
									End Site
									{
										OFFSET 0.61639 -0.00000 0.61639
									}
								}
							}
						}
					}
				}
				JOINT RightShoulder
				{
					OFFSET 0 0 0
					CHANNELS 3 Zrotation Yrotation Xrotation
					JOINT RightArm
					{
						OFFSET -2.60909 1.35448 0.21802
						CHANNELS 3 Zrotation Yrotation Xrotation
						JOINT RightForeArm
						{
							OFFSET -4.52172 -0.00000 -0.00000
							CHANNELS 3 Zrotation Yrotation Xrotation
							JOINT RightHand
							{
								OFFSET -2.89140 -0.00000 0.00000
								CHANNELS 3 Zrotation Yrotation Xrotation
								JOINT RightFingerBase
								{
									OFFSET 0 0 0
									CHANNELS 3 Zrotation Yrotation Xrotation
									JOINT RightHandIndex1
									{
										OFFSET -0.68054 -0.00000 0.00000
										CHANNELS 3 Zrotation Yrotation Xrotation
										End Site
										{
											OFFSET -0.54867 -0.00000 0.00000
										}
									}
								}
								JOINT RThumb
								{
									OFFSET 0 0 0
									CHANNELS 3 Zrotation Yrotation Xrotation
									End Site
									{
										OFFSET -0.55705 -0.00000 0.55705
									}
								}
							}
						}
					}
				}
			}
		}
	}
}
MOTION
Frames: 11
Frame Time: .0083333
9.0114 18.2929 18.2773 175.8640 -32.6625 192.2940 0.0000 0.0000 0.0000 -23.2157 -34.6364 1.8121 1.2606 7.1173 20.0633 5.2177 5.0024 -45.0937 11.3815 18.1168 64.0144 0.0000 0.0000 0.0000 27.8327 17.2487 6.7768 -0.5498 -4.7500 13.1970 -4.9117 -16.8175 -49.4772 -11.7845 -18.2981 65.3042 2.2283 3.5922 7.0394 -1.9197 4.7559 -6.6890 -4.0587 1.9524 -10.7713 8.6128 9.6408 -5.3283 -6.1229 12.4827 1.1843 -2.9422 6.1485 2.3392 -0.0000 -0.0000 0.0000 -26.1611 -61.4780 64.8157 121.5428 -55.8846 -86.9394 -0.0000 -0.0000 8.0992 127.7809 50.9342 134.9528 -7.1250 0.0000 -0.0000 32.4289 -85.7844 -34.6196 -0.0000 -0.0000 0.0000 0.1845 29.3259 25.7859 -118.6930 56.6483 -84.5693 0.0000 0.0000 19.3294 -51.5226 -48.3830 43.2476 7.1250 -0.0000 -0.0000 -105.5593 86.6256 -108.8408
8.9881 18.5480 18.1698 175.2860 -34.4306 193.1960 0.0000 0.0000 0.0000 -23.0790 -33.3272 0.4518 1.2339 7.0444 19.8470 5.5438 0.1986 -44.9543 12.1380 18.4484 66.4256 0.0000 0.0000 0.0000 27.0319 16.5198 5.1423 -0.6116 -5.0054 13.9239 -3.7212 -18.8018 -46.2496 -11.2752 -18.0671 63.6720 1.9099 3.5052 5.3537 -1.7643 4.5714 -6.6189 -3.5493 1.9254 -9.7315 8.5243 9.8699 -5.2601 -6.8467 12.8304 1.1588 -3.1490 6.3059 2.4016 0.0000 -0.0000 0.0000 -28.7020 -61.7435 66.3543 118.7377 -56.6370 -84.6066 -0.0000 -0.0000 14.7915 130.5628 42.1491 141.9045 -7.1250 0.0000 -0.0000 139.0418 81.9600 134.0391 0.0000 -0.0000 0.0000 -0.4504 27.6780 25.8176 -120.4388 56.1919 -86.0238 0.0000 0.0000 20.3717 -51.0242 -48.1811 42.6484 7.1250 -0.0000 -0.0000 -98.4887 86.7859 -101.6857
8.9746 18.7792 18.0659 174.6570 -36.3770 193.9560 0.0000 0.0000 0.0000 -23.1212 -32.2745 -0.5240 1.1967 6.9413 19.5415 4.8974 5.1370 -43.8004 12.2116 18.4787 66.6581 0.0000 0.0000 0.0000 26.2740 15.4069 3.5775 -0.6709 -5.2377 14.5878 -3.6328 -17.9265 -45.2918 -11.7331 -18.2756 65.1404 2.3680 3.2776 5.3576 -2.2523 4.2232 -7.2649 -4.3146 1.6502 -10.4113 8.4407 9.9433 -5.5960 -5.9842 12.9175 2.2522 -2.8004 6.3709 2.7583 -0.0000 -0.0000 0.0000 -31.9555 -61.3666 69.9055 119.0890 -56.5478 -84.8998 -0.0000 -0.0000 15.9831 130.3663 38.0752 144.0399 -7.1250 0.0000 -0.0000 145.4179 77.5888 138.9884 -0.0000 -0.0000 0.0000 0.6836 25.6881 26.8005 -122.4396 55.6240 -87.6808 0.0000 0.0000 22.6922 -47.7637 -49.4860 39.9417 7.1250 -0.0000 -0.0000 -92.9656 88.5066 -94.4585
8.9375 19.0458 18.0298 174.2750 -38.2032 196.0980 0.0000 0.0000 0.0000 -22.3706 -32.8683 -3.1919 1.1612 6.8410 19.2451 4.7095 6.0467 -43.3490 12.2958 18.5129 66.9234 0.0000 0.0000 0.0000 24.5557 13.6327 -0.5366 -0.7113 -5.3899 15.0240 1.6058 -30.4345 -34.4378 -10.3392 -17.5962 60.6162 3.3009 3.2728 3.6708 -2.3095 4.2020 -7.8056 -4.7925 1.5495 -9.9379 9.0120 9.9699 -4.7059 -7.6372 13.0291 1.4167 -3.5112 6.4062 2.5155 0.0000 -0.0000 0.0000 -35.7515 -61.8371 72.3912 115.6140 -57.3697 -81.9865 -0.0000 -0.0000 23.3081 133.3393 27.8427 153.6676 -7.1250 0.0000 -0.0000 158.0806 64.7988 150.7290 0.0000 -0.0000 0.0000 0.2829 23.2410 27.2627 -123.7194 55.2345 -88.7346 0.0000 0.0000 22.6188 -51.0728 -48.8056 42.9736 7.1250 -0.0000 -0.0000 -109.9827 86.9082 -112.9188
8.9577 19.2456 17.9212 173.9340 -40.5524 195.9250 0.0000 0.0000 0.0000 -22.6394 -31.3348 -3.3633 1.1419 6.7859 19.0827 4.1920 9.5829 -42.6877 12.1401 18.4492 66.4322 0.0000 0.0000 0.0000 24.7778 14.2621 0.0087 -0.7366 -5.4830 15.2913 2.5711 -32.0353 -31.4511 -10.1429 -17.4894 59.9650 2.9614 2.9622 3.5776 -1.9815 3.8037 -7.5250 -4.1901 1.4230 -9.6512 9.1129 9.9631 -4.5662 -8.7414 13.0579 1.3608 -3.5053 6.3842 2.3114 0.0000 0.0000 0.0000 -39.8126 -62.8323 75.7865 118.8698 -56.6037 -84.7169 -0.0000 -0.0000 15.3475 128.4555 34.1281 144.7605 -7.1250 0.0000 -0.0000 145.1729 73.3737 136.7772 0.0000 0.0000 0.0000 0.3454 20.7610 27.6541 -124.9648 54.8349 -89.7553 0.0000 0.0000 23.1726 -53.2989 -48.6047 45.1823 7.1250 -0.0000 -0.0000 -118.3805 85.7708 -122.1739
8.9740 19.4584 17.8359 174.0570 -42.7866 196.1920 0.0000 0.0000 0.0000 -22.1640 -30.4137 -4.5081 1.1352 6.7666 19.0258 4.1963 7.1900 -41.5804 12.5284 18.6052 67.6541 0.0000 0.0000 0.0000 24.8885 14.5811 -0.6464 -0.7406 -5.4975 15.3330 3.3273 -32.9538 -27.7568 -9.8953 -17.3505 59.1378 3.1817 2.7857 3.1100 -1.6848 3.6014 -7.4292 -3.9419 1.3380 -9.2902 9.1193 9.9025 -4.8916 -9.2771 12.9636 1.2833 -3.6551 6.3137 2.3712 -0.0000 -0.0000 0.0000 -42.2817 -62.5970 77.4474 118.1968 -56.7716 -84.1545 -0.0000 -0.0000 19.6444 130.1225 26.8179 151.8381 -7.1250 0.0000 -0.0000 153.7921 63.9988 144.7535 -0.0000 -0.0000 0.0000 0.5820 18.1219 27.8092 -125.8046 54.5535 -90.4406 0.0000 0.0000 24.1730 -54.5667 -48.1137 46.2957 7.1250 -0.0000 -0.0000 -117.2661 85.0937 -121.7246
8.9904 19.6528 17.7506 174.0000 -45.5697 195.9750 0.0000 0.0000 0.0000 -22.0837 -29.9284 -4.9171 1.1564 6.8273 19.2048 3.8747 8.1773 -40.5791 12.5717 18.6220 67.7899 0.0000 0.0000 0.0000 25.1564 14.3245 -0.6943 -0.7275 -5.4498 15.1960 3.2239 -32.4561 -27.1753 -9.9986 -17.4091 59.4837 3.8927 2.3165 3.8375 -1.6496 3.0725 -7.4607 -4.2917 1.0167 -9.7789 8.9873 9.8302 -5.3776 -9.1310 12.8529 1.6541 -3.5668 6.2464 2.5314 0.0000 0.0000 0.0000 -45.7534 -63.2369 80.3831 116.3928 -57.1970 -82.6417 -0.0000 -0.0000 21.8981 131.0462 20.5719 158.0229 -7.1250 0.0000 -0.0000 157.6750 55.5220 148.5787 0.0000 0.0000 0.0000 1.6930 15.4214 28.5229 -126.2135 54.4130 -90.7734 0.0000 0.0000 24.8452 -55.4378 -47.7591 47.0615 7.1250 -0.0000 -0.0000 -116.5927 84.6215 -121.5191
9.0066 19.8343 17.6657 174.3820 -48.1695 195.2040 0.0000 0.0000 0.0000 -21.9368 -30.1008 -4.6721 1.1662 6.8551 19.2868 3.5776 9.7730 -40.0153 12.4927 18.5912 67.5422 0.0000 0.0000 0.0000 25.6950 13.9795 -0.5386 -0.7075 -5.3758 14.9835 3.7262 -33.5754 -25.8057 -9.7282 -17.2542 58.5762 3.9933 1.9038 3.8116 -0.8901 2.6201 -6.9249 -3.4703 0.8665 -9.2443 8.5891 9.7695 -5.6800 -9.7173 12.7954 1.6332 -3.6703 6.1860 2.5859 -0.0000 -0.0000 0.0000 -49.0108 -63.8694 81.7706 111.5987 -58.1618 -78.5896 -0.0000 -0.0000 31.7749 135.1080 6.7681 173.3036 -7.1250 0.0000 -0.0000 164.8453 36.4613 158.4370 -0.0000 -0.0000 0.0000 1.7274 13.0505 28.5958 -126.1116 54.4483 -90.6905 0.0000 0.0000 24.6691 -56.2936 -47.7437 47.9722 7.1250 -0.0000 -0.0000 -119.4321 84.1648 -124.6597
9.0221 20.0117 17.5871 174.7680 -50.6184 194.4300 0.0000 0.0000 0.0000 -21.9057 -30.5989 -4.2914 1.1631 6.8466 19.2617 3.2188 11.5566 -39.3364 12.4423 18.5714 67.3840 0.0000 0.0000 0.0000 26.0405 14.0612 -0.4472 -0.6994 -5.3455 14.8968 4.7076 -35.8157 -23.2416 -9.1047 -16.8746 56.4514 4.9783 1.3572 4.8747 -0.6928 2.0560 -7.0114 -3.7906 0.5048 -10.0117 8.5278 9.7774 -5.7204 -9.7126 12.8358 2.0186 -3.6451 6.2017 2.7070 0.0000 0.0000 0.0000 -51.4041 -63.3212 84.0306 113.4972 -57.8074 -80.1994 -0.0000 -0.0000 27.7858 132.7186 9.8605 169.4933 -7.1250 0.0000 -0.0000 162.2943 40.4525 154.5359 0.0000 0.0000 0.0000 2.9164 11.0159 29.4228 -125.9146 54.5160 -90.5301 0.0000 0.0000 24.4084 -56.9384 -48.2238 48.8836 7.1250 -0.0000 -0.0000 -125.9157 83.7844 -131.1263
9.0396 20.1787 17.5187 174.8380 -53.1546 193.8350 0.0000 0.0000 0.0000 -22.1539 -30.9876 -3.8469 1.1414 6.7844 19.0781 3.1538 12.1091 -39.3637 12.3515 18.5353 67.0988 0.0000 0.0000 0.0000 26.1213 14.8272 -0.2205 -0.7068 -5.3735 14.9770 5.0424 -36.7035 -23.1953 -9.0055 -16.8112 56.1091 4.5515 0.9591 5.0604 0.3256 1.5903 -6.4722 -2.4010 0.3892 -9.6037 7.8746 9.6517 -6.0236 -10.5344 12.7144 1.9063 -3.7876 6.0953 2.7300 -0.0000 -0.0000 0.0000 -55.3029 -63.7001 86.2811 114.6872 -57.5670 -81.2051 -0.0000 -0.0000 23.8230 130.6249 11.7572 166.6383 -7.1250 0.0000 -0.0000 160.0611 42.9756 151.1792 -0.0000 -0.0000 0.0000 2.6300 8.5119 29.1069 -125.3225 54.7162 -90.0475 0.0000 0.0000 24.3663 -56.4925 -48.4666 48.5088 7.1250 -0.0000 -0.0000 -127.0517 84.0150 -131.9925
9.0632 20.3246 17.4399 174.7880 -55.3290 193.1510 0.0000 0.0000 0.0000 -22.6459 -30.7519 -3.1105 1.0911 6.6383 18.6481 3.5272 10.7069 -40.2926 12.2982 18.5139 66.9311 0.0000 0.0000 0.0000 26.1171 15.7477 0.1504 -0.7385 -5.4901 15.3119 4.8579 -36.3636 -24.0941 -9.1073 -16.8762 56.4603 5.0158 0.4668 6.4044 0.3844 1.0774 -6.4873 -2.5536 0.0916 -10.4661 7.9793 9.4976 -6.4642 -10.3256 12.5086 2.4799 -3.7231 5.9814 2.9457 0.0000 -0.0000 0.0000 -57.6222 -63.0012 87.9161 110.1876 -58.4027 -77.3892 -0.0000 -0.0000 33.3896 133.8731 0.2758 179.7131 -7.1250 0.0000 -0.0000 165.1135 27.1202 159.5060 0.0000 -0.0000 0.0000 4.2819 5.9599 29.6541 -124.1607 55.0952 -89.0968 0.0000 0.0000 24.2436 -56.9400 -46.6775 48.1809 7.1250 -0.0000 -0.0000 -111.4714 83.7462 -117.4366
